<?xml version="1.0" encoding="UTF-8"?>
<!DOCTYPE svg PUBLIC "-//W3C//DTD SVG 1.1//EN" "http://www.w3.org/Graphics/SVG/1.1/DTD/svg11.dtd">
<svg xmlns="http://www.w3.org/2000/svg" version="1.1" width="500px" height="500px" style="shape-rendering:geometricPrecision; text-rendering:geometricPrecision; image-rendering:optimizeQuality; fill-rule:evenodd; clip-rule:evenodd" xmlns:xlink="http://www.w3.org/1999/xlink">
<g><path style="opacity:0.972" fill="#fe0000" d="M 220.5,-0.5 C 220.833,-0.5 221.167,-0.5 221.5,-0.5C 221.833,0.833333 222.167,0.833333 222.5,-0.5C 240.5,-0.5 258.5,-0.5 276.5,-0.5C 276.833,0.833333 277.167,0.833333 277.5,-0.5C 277.833,-0.5 278.167,-0.5 278.5,-0.5C 290.659,4.82838 298.826,13.8284 303,26.5C 303.497,29.146 303.664,31.8127 303.5,34.5C 340.835,34.3333 378.168,34.5 415.5,35C 426.61,39.4832 430.777,47.6499 428,59.5C 425.309,65.5291 420.809,69.3624 414.5,71C 304.5,71.6667 194.5,71.6667 84.5,71C 69.9562,65.2531 66.4562,55.4198 74,41.5C 76.5933,38.4565 79.76,36.2899 83.5,35C 120.832,34.5 158.165,34.3333 195.5,34.5C 195.571,22.1927 200.571,12.3593 210.5,5C 214.056,3.39245 217.389,1.55911 220.5,-0.5 Z"/></g>
<g><path style="opacity:0.977" fill="#fe0000" d="M 363.5,499.5 C 287.5,499.5 211.5,499.5 135.5,499.5C 129.706,496.531 125.873,491.864 124,485.5C 106.786,371.167 89.6192,256.834 72.5,142.5C 63.8269,142.666 55.1603,142.5 46.5,142C 36.464,137.275 32.6306,129.441 35,118.5C 37.5278,113.305 41.3612,109.472 46.5,107C 181.833,106.333 317.167,106.333 452.5,107C 465.065,113.573 467.898,123.073 461,135.5C 459.016,138.746 456.182,140.912 452.5,142C 443.84,142.5 435.173,142.666 426.5,142.5C 409.381,256.834 392.214,371.167 375,485.5C 373.127,491.864 369.294,496.531 363.5,499.5 Z M 110.5,142.5 C 133.167,142.5 155.833,142.5 178.5,142.5C 183.423,249.215 188.756,355.882 194.5,462.5C 182.518,463.499 170.518,463.832 158.5,463.5C 142.5,356.498 126.5,249.498 110.5,142.5 Z M 215.5,142.5 C 238.167,142.5 260.833,142.5 283.5,142.5C 277.85,249.481 272.517,356.481 267.5,463.5C 255.5,463.5 243.5,463.5 231.5,463.5C 226.483,356.481 221.15,249.481 215.5,142.5 Z M 320.5,142.5 C 343.167,142.5 365.833,142.5 388.5,142.5C 372.5,249.498 356.5,356.498 340.5,463.5C 328.482,463.832 316.482,463.499 304.5,462.5C 310.244,355.882 315.577,249.215 320.5,142.5 Z"/></g>
</svg>
