<?xml version="1.0" encoding="UTF-8"?>
<!DOCTYPE svg PUBLIC "-//W3C//DTD SVG 1.1//EN" "http://www.w3.org/Graphics/SVG/1.1/DTD/svg11.dtd">
<svg xmlns="http://www.w3.org/2000/svg" version="1.1" width="500px" height="500px" style="shape-rendering:geometricPrecision; text-rendering:geometricPrecision; image-rendering:optimizeQuality; fill-rule:evenodd; clip-rule:evenodd" xmlns:xlink="http://www.w3.org/1999/xlink">
<g><path style="opacity:0.958" fill="#00ad00" d="M 395.5,-0.5 C 404.167,-0.5 412.833,-0.5 421.5,-0.5C 428.855,2.01474 435.522,5.84808 441.5,11C 459.728,28.5595 477.228,46.7261 494,65.5C 495.609,69.71 497.442,73.71 499.5,77.5C 499.5,85.5 499.5,93.5 499.5,101.5C 498.167,101.833 498.167,102.167 499.5,102.5C 499.5,102.833 499.5,103.167 499.5,103.5C 496.965,108.899 494.132,114.232 491,119.5C 379.861,231.639 268.361,343.473 156.5,455C 112.032,469.767 67.6989,484.6 23.5,499.5C 17.8333,499.5 12.1667,499.5 6.5,499.5C 4.13771,496.808 1.80437,494.141 -0.5,491.5C -0.5,486.833 -0.5,482.167 -0.5,477.5C 0.770922,475.891 1.77092,474.058 2.5,472C 2.16667,471.667 1.83333,471.333 1.5,471C 15.6575,428.527 29.8242,386.027 44,343.5C 150.167,237.333 256.333,131.167 362.5,25C 369.5,18.6667 376.5,12.3333 383.5,6C 387.157,3.00783 391.157,0.841161 395.5,-0.5 Z M 404.5,32.5 C 411.168,31.4453 416.834,33.2786 421.5,38C 436.696,52.862 451.529,68.0286 466,83.5C 468.04,88.6425 467.707,93.6425 465,98.5C 450.682,113.985 435.848,128.985 420.5,143.5C 398.508,122.042 376.841,100.209 355.5,78C 370.851,61.472 387.184,46.3053 404.5,32.5 Z M 42.5,456.5 C 52.354,424.77 62.5206,393.104 73,361.5C 158.68,274.653 244.847,188.32 331.5,102.5C 353.653,124.153 375.653,145.986 397.5,168C 311.419,253.748 225.419,339.415 139.5,425C 107.421,436.415 75.0879,446.915 42.5,456.5 Z"/></g>
</svg>
