<?xml version="1.0" encoding="UTF-8"?>
<!DOCTYPE svg PUBLIC "-//W3C//DTD SVG 1.1//EN" "http://www.w3.org/Graphics/SVG/1.1/DTD/svg11.dtd">
<svg xmlns="http://www.w3.org/2000/svg" version="1.1" width="500px" height="500px" style="shape-rendering:geometricPrecision; text-rendering:geometricPrecision; image-rendering:optimizeQuality; fill-rule:evenodd; clip-rule:evenodd" xmlns:xlink="http://www.w3.org/1999/xlink">
<g><path style="opacity:1" fill="#a1a1a1" d="M 130.5,1.5 C 151.411,2.08028 169.577,9.41362 185,23.5C 217.314,14.2809 250.147,12.1143 283.5,17C 293.621,18.0235 303.454,20.1901 313,23.5C 325.194,13.3186 339.027,6.15197 354.5,2C 374.093,-0.783892 389.259,6.04944 400,22.5C 406.253,32.0081 410.586,42.3414 413,53.5C 415.874,66.6942 417.874,80.0275 419,93.5C 456.006,145.542 464.006,201.876 443,262.5C 442.333,264.167 442.333,265.833 443,267.5C 455.237,276.702 467.737,285.535 480.5,294C 482.667,296.167 484.833,298.333 487,300.5C 487.667,362.167 487.667,423.833 487,485.5C 485.141,491.36 481.307,495.193 475.5,497C 324.167,497.667 172.833,497.667 21.5,497C 16.7515,495.253 13.2515,492.087 11,487.5C 10.4425,425.334 10.7759,363.334 12,301.5C 12.3742,300.584 12.8742,299.75 13.5,299C 27.6144,289.219 41.4477,279.053 55,268.5C 52.1974,255.609 49.5307,242.609 47,229.5C 39.7182,187.133 46.3849,147.133 67,109.5C 70.3333,104.833 73.6667,100.167 77,95.5C 76.2762,67.7111 83.6096,42.3778 99,19.5C 107.44,9.70205 117.94,3.70205 130.5,1.5 Z"/></g>
<g><path style="opacity:1" fill="#fbfbfb" d="M 127.5,4.5 C 142.295,3.6253 155.962,7.1253 168.5,15C 174.01,18.5882 179.343,22.4215 184.5,26.5C 203.965,20.1477 223.965,17.1477 244.5,17.5C 267.804,17.1754 290.638,20.1754 313,26.5C 325.493,16.8363 339.326,9.66966 354.5,5C 373.098,2.38266 387.598,8.88266 398,24.5C 406.933,39.9668 412.266,56.6335 414,74.5C 414.972,81.1346 415.639,87.8013 416,94.5C 447.868,137.33 458.201,184.997 447,237.5C 444.399,247.069 441.566,256.569 438.5,266C 440.112,268.616 442.112,270.95 444.5,273C 458.285,281.643 471.452,291.143 484,301.5C 484.667,362.5 484.667,423.5 484,484.5C 482.248,488.588 479.415,491.754 475.5,494C 324.167,494.667 172.833,494.667 21.5,494C 19.3762,492.878 17.5429,491.378 16,489.5C 14.3445,426.891 14.0111,364.224 15,301.5C 25.6132,292.888 36.7798,285.055 48.5,278C 51.9646,275.537 55.1312,272.704 58,269.5C 53.5396,250.176 50.2062,230.509 48,210.5C 44.2626,168.06 54.9292,129.726 80,95.5C 79.9762,72.6254 84.9762,50.9587 95,30.5C 102.776,17.8786 113.609,9.21193 127.5,4.5 Z"/></g>
<g><path style="opacity:1" fill="#8f8e8e" d="M 411.5,275.5 C 414.5,276.167 417.5,276.833 420.5,277.5C 417.102,277.82 413.768,277.487 410.5,276.5C 410.624,275.893 410.957,275.56 411.5,275.5 Z"/></g>
<g><path style="opacity:1" fill="#090806" d="M 411.5,275.5 C 410.957,275.56 410.624,275.893 410.5,276.5C 413.768,277.487 417.102,277.82 420.5,277.5C 433.914,288.721 447.581,299.721 461.5,310.5C 462.5,365.163 462.833,419.829 462.5,474.5C 319.833,474.5 177.167,474.5 34.5,474.5C 34.3333,419.832 34.5,365.166 35,310.5C 48.5,299.667 62,288.833 75.5,278C 78.8168,277.502 82.1501,277.335 85.5,277.5C 60.6995,225.796 61.5328,174.463 88,123.5C 91.2762,117.892 94.9429,112.558 99,107.5C 98.7101,88.0524 101.377,69.0524 107,50.5C 117.081,25.8597 133.915,19.3597 157.5,31C 165.601,36.4679 173.434,42.3012 181,48.5C 226.113,33.897 271.28,33.897 316.5,48.5C 327.426,38.7528 339.759,31.2528 353.5,26C 366.038,25.0708 376.205,29.5708 384,39.5C 391.256,51.0819 395.256,63.7485 396,77.5C 396.376,85.8575 397.043,94.1909 398,102.5C 429.952,145.366 438.619,192.699 424,244.5C 420.707,255.217 416.541,265.55 411.5,275.5 Z"/></g>
<g><path style="opacity:1" fill="#7a5b22" d="M 406.5,283.5 C 410.182,283.335 413.848,283.501 417.5,284C 428.5,293 439.5,302 450.5,311C 427.833,311.667 405.167,311.667 382.5,311C 391.77,302.9 399.77,293.733 406.5,283.5 Z"/></g>
<g><path style="opacity:1" fill="#7a5b22" d="M 79.5,283.5 C 83.1817,283.335 86.8484,283.501 90.5,284C 97.419,294.254 105.752,303.254 115.5,311C 92.1667,311.667 68.8333,311.667 45.5,311C 57.0864,302.054 68.4197,292.887 79.5,283.5 Z"/></g>
<g><path style="opacity:1" fill="#714044" d="M 108.5,88.5 C 108.205,90.7354 108.539,92.7354 109.5,94.5C 109.44,95.0431 109.107,95.3764 108.5,95.5C 107.203,93.0268 107.203,90.6934 108.5,88.5 Z"/></g>
<g><path style="opacity:1" fill="#fdfdfd" d="M 231.5,45.5 C 276.678,43.031 318.678,53.1976 357.5,76C 408.912,113.187 429.746,163.353 420,226.5C 414,261.364 397.167,289.53 369.5,311C 365.459,311.827 361.459,311.66 357.5,310.5C 348.673,297.209 337.007,294.042 322.5,301C 319.073,303.756 316.407,307.09 314.5,311C 270.167,311.667 225.833,311.667 181.5,311C 176.93,302.441 169.763,297.941 160,297.5C 150.788,298.184 143.954,302.517 139.5,310.5C 136.216,311.657 132.882,311.824 129.5,311C 97.9819,288.836 80.1485,258.336 76,219.5C 72.1998,148.738 101.366,96.9043 163.5,64C 185.267,54.0609 207.933,47.8942 231.5,45.5 Z"/></g>
<g><path style="opacity:1" fill="#10100f" d="M 148.5,269.5 C 152.909,268.899 154.242,270.566 152.5,274.5C 145.172,276.831 137.839,279.165 130.5,281.5C 127.604,280.976 126.937,279.476 128.5,277C 135.304,274.569 141.971,272.069 148.5,269.5 Z"/></g>
<g><path style="opacity:1" fill="#10100f" d="M 344.5,269.5 C 352.573,271.691 360.573,274.191 368.5,277C 369.517,278.049 369.684,279.216 369,280.5C 367.274,281.576 365.441,281.743 363.5,281C 357.5,279 351.5,277 345.5,275C 343.19,273.541 342.857,271.708 344.5,269.5 Z"/></g>
<g><path style="opacity:1" fill="#0e0d0d" d="M 345.5,259.5 C 354.523,259.535 363.523,260.035 372.5,261C 373.833,262.333 373.833,263.667 372.5,265C 363.797,265.702 355.13,265.368 346.5,264C 345.62,262.644 345.286,261.144 345.5,259.5 Z"/></g>
<g><path style="opacity:1" fill="#0f0f0e" d="M 132.5,259.5 C 138.509,259.334 144.509,259.501 150.5,260C 151.833,261.333 151.833,262.667 150.5,264C 141.533,265.106 132.533,265.606 123.5,265.5C 123.286,263.856 123.62,262.356 124.5,261C 127.365,260.817 130.031,260.317 132.5,259.5 Z"/></g>
<g><path style="opacity:1" fill="#0c0b09" d="M 213.5,235.5 C 220.876,239.182 228.543,242.349 236.5,245C 252.114,248.144 266.447,245.144 279.5,236C 285.721,237.226 286.054,239.726 280.5,243.5C 279.849,258.089 276.016,271.756 269,284.5C 257.778,297.276 245.278,298.776 231.5,289C 228.371,285.248 225.871,281.081 224,276.5C 220.774,266.035 218.44,255.368 217,244.5C 211.892,242.669 210.725,239.669 213.5,235.5 Z"/></g>
<g><path style="opacity:1" fill="#f66c5a" d="M 223.5,247.5 C 239.794,254.14 256.127,254.14 272.5,247.5C 273.441,259.735 270.608,271.068 264,281.5C 252.956,292.465 242.289,292.131 232,280.5C 226.824,270.109 223.991,259.109 223.5,247.5 Z"/></g>
<g><path style="opacity:1" fill="#0a0a09" d="M 243.5,211.5 C 250.152,210.618 255.985,212.285 261,216.5C 264.587,224.824 262.087,230.324 253.5,233C 246.755,234.702 240.922,233.202 236,228.5C 232.817,220.217 235.317,214.55 243.5,211.5 Z"/></g>
<g><path style="opacity:1" fill="#eeeded" d="M 244.5,214.5 C 247.187,214.336 249.854,214.503 252.5,215C 255.15,217.082 254.816,218.749 251.5,220C 247.624,221.205 244.624,220.205 242.5,217C 243.056,215.989 243.722,215.156 244.5,214.5 Z"/></g>
<g><path style="opacity:1" fill="#0a0a09" d="M 169.5,188.5 C 183.936,188.42 193.103,195.42 197,209.5C 198.592,220.638 195.758,230.471 188.5,239C 169.678,249.014 157.511,243.514 152,222.5C 149.677,206.809 155.511,195.475 169.5,188.5 Z"/></g>
<g><path style="opacity:1" fill="#f5f4f4" d="M 180.5,216.5 C 189.153,215.987 192.653,219.987 191,228.5C 188.459,233.069 184.625,234.569 179.5,233C 172.671,227.003 173.004,221.503 180.5,216.5 Z"/></g>
<g><path style="opacity:1" fill="#f7f6f6" d="M 164.5,195.5 C 175.726,193.821 181.226,198.488 181,209.5C 177.976,218.095 172.142,220.929 163.5,218C 155.261,210.018 155.594,202.518 164.5,195.5 Z"/></g>
<g><path style="opacity:1" fill="#0a0a09" d="M 316.5,188.5 C 330.801,186.978 340.301,192.978 345,206.5C 347.803,219.467 344.636,230.633 335.5,240C 322.212,247.611 311.712,244.777 304,231.5C 296.394,213.504 300.561,199.171 316.5,188.5 Z"/></g>
<g><path style="opacity:1" fill="#f4f4f4" d="M 328.5,216.5 C 337.658,215.491 341.492,219.491 340,228.5C 337.72,232.768 334.22,234.268 329.5,233C 321.873,228.009 321.54,222.509 328.5,216.5 Z"/></g>
<g><path style="opacity:1" fill="#f9f8f8" d="M 314.5,194.5 C 326.361,194.193 331.194,199.86 329,211.5C 325.551,217.544 320.385,219.71 313.5,218C 306.93,214.345 304.763,208.845 307,201.5C 309.015,198.588 311.515,196.255 314.5,194.5 Z"/></g>
<g><path style="opacity:1" fill="#f77795" d="M 368.5,37.5 C 371.372,38.5256 373.872,40.1923 376,42.5C 382.211,50.7944 385.878,60.1277 387,70.5C 388.119,77.141 388.453,83.8077 388,90.5C 374.776,77.4828 359.942,66.8161 343.5,58.5C 350.269,49.7385 358.603,42.7385 368.5,37.5 Z"/></g>
<g><path style="opacity:1" fill="#f77795" d="M 127.5,36.5 C 136.311,41.1345 144.144,47.1345 151,54.5C 152.094,56.0779 152.928,57.7446 153.5,59.5C 137.012,68.7607 122.345,80.4273 109.5,94.5C 108.539,92.7354 108.205,90.7354 108.5,88.5C 107.995,70.4781 112.829,54.1448 123,39.5C 124.271,38.1175 125.771,37.1175 127.5,36.5 Z"/></g>
<g><path style="opacity:1" fill="#f9f8f8" d="M 368.5,37.5 C 358.603,42.7385 350.269,49.7385 343.5,58.5C 337.771,56.3668 332.104,54.0334 326.5,51.5C 334.354,44.7384 343.021,39.2384 352.5,35C 356.5,34.3333 360.5,34.3333 364.5,35C 366.066,35.6082 367.4,36.4415 368.5,37.5 Z"/></g>
<g><path style="opacity:1" fill="#f9f8f8" d="M 153.5,59.5 C 152.928,57.7446 152.094,56.0779 151,54.5C 144.144,47.1345 136.311,41.1345 127.5,36.5C 132.557,32.277 138.223,31.4437 144.5,34C 154.489,38.3265 163.489,44.1599 171.5,51.5C 165.569,54.3642 159.569,57.0308 153.5,59.5 Z"/></g>
<g><path style="opacity:1" fill="#fbfbfa" d="M 329.5,304.5 C 336.85,303.304 343.35,304.97 349,309.5C 353.784,319.479 350.951,326.312 340.5,330C 332.876,331.936 326.709,329.77 322,323.5C 318.954,314.931 321.454,308.597 329.5,304.5 Z"/></g>
<g><path style="opacity:1" fill="#f9f8f8" d="M 155.5,304.5 C 164.082,303.186 170.582,306.186 175,313.5C 176.972,322.543 173.472,328.377 164.5,331C 156.662,332.494 150.495,329.994 146,323.5C 143.307,314.22 146.473,307.887 155.5,304.5 Z"/></g>
<g><path style="opacity:1" fill="#b58833" d="M 41.5,318.5 C 41.5,327.833 41.5,337.167 41.5,346.5C 41.5,379.167 41.5,411.833 41.5,444.5C 179.5,444.5 317.5,444.5 455.5,444.5C 455.5,411.833 455.5,379.167 455.5,346.5C 455.5,337.167 455.5,327.833 455.5,318.5C 456.499,367.997 456.832,417.664 456.5,467.5C 317.833,467.5 179.167,467.5 40.5,467.5C 40.1678,417.664 40.5011,367.997 41.5,318.5 Z"/></g>
<g><path style="opacity:1" fill="#feec94" d="M 41.5,346.5 C 179.5,346.5 317.5,346.5 455.5,346.5C 455.5,379.167 455.5,411.833 455.5,444.5C 317.5,444.5 179.5,444.5 41.5,444.5C 41.5,411.833 41.5,379.167 41.5,346.5 Z"/></g>
<g><path style="opacity:1" fill="#fec261" d="M 424.5,399.5 C 418.69,400.49 412.69,400.823 406.5,400.5C 406.5,403.167 406.5,405.833 406.5,408.5C 405.523,405.713 405.19,402.713 405.5,399.5C 411.833,399.5 418.167,399.5 424.5,399.5 Z"/></g>
<g><path style="opacity:1" fill="#fe7203" d="M 140.5,393.5 C 141.46,399.548 144.627,400.881 150,397.5C 150.49,396.207 150.657,394.873 150.5,393.5C 161.173,394.747 169.006,400.08 174,409.5C 175.419,424.106 168.919,433.273 154.5,437C 142.065,439.892 131.232,437.058 122,428.5C 114,415.507 116.5,405.007 129.5,397C 133.021,395.326 136.687,394.16 140.5,393.5 Z"/></g>
<g><path style="opacity:1" fill="#fcfaf3" d="M 150.5,430.5 C 152.337,430.639 152.67,431.306 151.5,432.5C 150.702,432.043 150.369,431.376 150.5,430.5 Z"/></g>
<g><path style="opacity:1" fill="#fde1c8" d="M 135.5,427.5 C 137.465,427.948 137.798,428.948 136.5,430.5C 135.614,429.675 135.281,428.675 135.5,427.5 Z"/></g>
<g><path style="opacity:1" fill="#facf87" d="M 162.5,423.5 C 164.337,423.639 164.67,424.306 163.5,425.5C 162.702,425.043 162.369,424.376 162.5,423.5 Z"/></g>
<g><path style="opacity:1" fill="#fce9ca" d="M 124.5,417.5 C 126.76,418.238 126.927,419.238 125,420.5C 123.272,419.648 123.105,418.648 124.5,417.5 Z"/></g>
<g><path style="opacity:1" fill="#fed5bd" d="M 151.5,416.5 C 153.337,416.639 153.67,417.306 152.5,418.5C 151.702,418.043 151.369,417.376 151.5,416.5 Z"/></g>
<g><path style="opacity:1" fill="#ffe1c5" d="M 137.5,416.5 C 140.293,416.74 140.793,417.74 139,419.5C 137.961,418.756 137.461,417.756 137.5,416.5 Z"/></g>
<g><path style="opacity:1" fill="#ffe5c7" d="M 166.5,410.5 C 168.465,410.948 168.798,411.948 167.5,413.5C 166.614,412.675 166.281,411.675 166.5,410.5 Z"/></g>
<g><path style="opacity:1" fill="#ffc08d" d="M 146.5,410.5 C 148.337,410.639 148.67,411.306 147.5,412.5C 146.702,412.043 146.369,411.376 146.5,410.5 Z"/></g>
<g><path style="opacity:1" fill="#fdca7a" d="M 129.5,404.5 C 131.337,404.639 131.67,405.306 130.5,406.5C 129.702,406.043 129.369,405.376 129.5,404.5 Z"/></g>
<g><path style="opacity:1" fill="#399e2b" d="M 150.5,393.5 C 150.657,394.873 150.49,396.207 150,397.5C 144.627,400.881 141.46,399.548 140.5,393.5C 143.833,390.833 147.167,390.833 150.5,393.5 Z"/></g>
<g><path style="opacity:1" fill="#f4bb5e" d="M 316.5,375.5 C 316.5,389.167 316.5,402.833 316.5,416.5C 315.833,416.833 315.167,417.167 314.5,417.5C 314.5,416.167 314.5,414.833 314.5,413.5C 315.167,400.833 315.833,388.167 316.5,375.5 Z"/></g>
<g><path style="opacity:1" fill="#fe7305" d="M 314.5,413.5 C 314.5,414.833 314.5,416.167 314.5,417.5C 312.092,421.013 309.258,421.346 306,418.5C 304.346,413.552 302.846,408.552 301.5,403.5C 296.208,402.505 290.875,402.172 285.5,402.5C 284.376,408.164 282.709,413.664 280.5,419C 275.515,420.757 272.849,419.09 272.5,414C 275.455,400.636 279.121,387.469 283.5,374.5C 284.025,373.808 284.692,373.308 285.5,373C 290.833,372.333 296.167,372.333 301.5,373C 303.487,374.319 304.654,376.152 305,378.5C 308.329,390.153 311.496,401.82 314.5,413.5 Z"/></g>
<g><path style="opacity:1" fill="#ffe78f" d="M 291.5,382.5 C 292.978,382.238 294.311,382.571 295.5,383.5C 296.933,386.333 297.6,389.333 297.5,392.5C 294.428,392.817 291.428,392.484 288.5,391.5C 289.877,388.596 290.877,385.596 291.5,382.5 Z"/></g>
<g><path style="opacity:1" fill="#fe7103" d="M 237.5,373.5 C 245.507,373.334 253.507,373.5 261.5,374C 268.236,377.976 270.736,383.809 269,391.5C 267.939,394.562 266.106,397.062 263.5,399C 265.794,403.088 267.961,407.255 270,411.5C 271.741,419.531 269.074,421.531 262,417.5C 259.332,412.979 256.832,408.312 254.5,403.5C 251.914,402.52 249.247,402.187 246.5,402.5C 246.897,407.959 246.397,413.292 245,418.5C 242.034,421.265 239.367,420.932 237,417.5C 236.185,402.759 236.351,388.092 237.5,373.5 Z"/></g>
<g><path style="opacity:1" fill="#ffeb93" d="M 246.5,382.5 C 249.518,382.335 252.518,382.502 255.5,383C 260.859,386.334 260.525,389.334 254.5,392C 251.854,392.497 249.187,392.664 246.5,392.5C 246.5,389.167 246.5,385.833 246.5,382.5 Z"/></g>
<g><path style="opacity:1" fill="#fe7306" d="M 204.5,372.5 C 210.509,372.334 216.509,372.501 222.5,373C 227.235,374.068 230.402,376.901 232,381.5C 232.667,390.5 232.667,399.5 232,408.5C 230.807,413.694 227.64,416.86 222.5,418C 216.833,418.667 211.167,418.667 205.5,418C 201.359,416.526 198.526,413.693 197,409.5C 196.074,399.093 196.408,388.759 198,378.5C 200.063,376.266 202.229,374.266 204.5,372.5 Z"/></g>
<g><path style="opacity:1" fill="#ffe990" d="M 207.5,382.5 C 212.099,382.2 216.599,382.533 221,383.5C 221.5,391.493 221.666,399.493 221.5,407.5C 216.5,407.5 211.5,407.5 206.5,407.5C 206.198,399.082 206.531,390.748 207.5,382.5 Z"/></g>
<g><path style="opacity:1" fill="#ff7204" d="M 424.5,399.5 C 418.167,399.5 411.833,399.5 405.5,399.5C 405.19,402.713 405.523,405.713 406.5,408.5C 412.842,408.334 419.175,408.5 425.5,409C 429.085,411.528 429.418,414.528 426.5,418C 416.816,418.832 407.149,418.665 397.5,417.5C 397.192,416.692 396.692,416.025 396,415.5C 395.333,401.5 395.333,387.5 396,373.5C 396.5,373 397,372.5 397.5,372C 406.833,371.333 416.167,371.333 425.5,372C 429.482,374.952 429.482,377.952 425.5,381C 418.842,381.5 412.175,381.666 405.5,381.5C 405.5,384.167 405.5,386.833 405.5,389.5C 412.558,389.203 419.558,389.536 426.5,390.5C 428.339,392.527 428.839,394.86 428,397.5C 427.184,398.823 426.017,399.489 424.5,399.5 Z"/></g>
<g><path style="opacity:1" fill="#fe7306" d="M 366.5,408.5 C 371.305,409.487 376.305,409.821 381.5,409.5C 381.5,405.833 381.5,402.167 381.5,398.5C 378.833,398.5 376.167,398.5 373.5,398.5C 369.527,395.46 369.527,392.294 373.5,389C 378.167,388.333 382.833,388.333 387.5,389C 388.333,389.833 389.167,390.667 390,391.5C 390.667,399.833 390.667,408.167 390,416.5C 389.167,417.333 388.333,418.167 387.5,419C 378.167,419.667 368.833,419.667 359.5,419C 358.667,418.167 357.833,417.333 357,416.5C 356.333,402.167 356.333,387.833 357,373.5C 357.5,373 358,372.5 358.5,372C 367.5,371.333 376.5,371.333 385.5,372C 389.085,374.528 389.418,377.528 386.5,381C 379.842,381.5 373.175,381.666 366.5,381.5C 366.5,390.5 366.5,399.5 366.5,408.5 Z"/></g>
<g><path style="opacity:1" fill="#fea33e" d="M 373.5,398.5 C 376.167,398.5 378.833,398.5 381.5,398.5C 381.5,402.167 381.5,405.833 381.5,409.5C 376.305,409.821 371.305,409.487 366.5,408.5C 371.167,408.5 375.833,408.5 380.5,408.5C 380.5,405.5 380.5,402.5 380.5,399.5C 377.941,399.802 375.607,399.468 373.5,398.5 Z"/></g>
<g><path style="opacity:1" fill="#fe7103" d="M 327.5,397.5 C 327.217,396.711 326.717,396.044 326,395.5C 325.5,402.492 325.334,409.492 325.5,416.5C 322.5,420.5 319.5,420.5 316.5,416.5C 316.5,402.833 316.5,389.167 316.5,375.5C 317.706,372.861 319.706,372.028 322.5,373C 328.704,381.239 334.537,389.739 340,398.5C 340.333,390.833 340.667,383.167 341,375.5C 343.661,372.034 346.661,371.701 350,374.5C 350.667,388.833 350.667,403.167 350,417.5C 347.445,419.65 344.612,419.983 341.5,418.5C 336.807,411.482 332.141,404.482 327.5,397.5 Z"/></g>
<g><path style="opacity:1" fill="#febb58" d="M 327.5,397.5 C 326.833,403.833 326.167,410.167 325.5,416.5C 325.334,409.492 325.5,402.492 326,395.5C 326.717,396.044 327.217,396.711 327.5,397.5 Z"/></g>
<g><path style="opacity:1" fill="#fe7203" d="M 95.5,360.5 C 97.8471,366.254 101.18,366.921 105.5,362.5C 106.158,361.602 106.824,360.602 107.5,359.5C 124.599,362.739 131.432,372.739 128,389.5C 121.686,398.743 112.852,403.409 101.5,403.5C 87.7862,403.906 78.2862,397.906 73,385.5C 71.9121,371.872 78.0787,363.372 91.5,360C 93.0657,359.235 94.3991,359.402 95.5,360.5 Z"/></g>
<g><path style="opacity:1" fill="#fff2dd" d="M 105.5,395.5 C 107.337,395.639 107.67,396.306 106.5,397.5C 105.702,397.043 105.369,396.376 105.5,395.5 Z"/></g>
<g><path style="opacity:1" fill="#faecd5" d="M 91.5,392.5 C 93.7602,393.238 93.9269,394.238 92,395.5C 90.2716,394.648 90.105,393.648 91.5,392.5 Z"/></g>
<g><path style="opacity:1" fill="#fbce7d" d="M 117.5,388.5 C 119.337,388.639 119.67,389.306 118.5,390.5C 117.702,390.043 117.369,389.376 117.5,388.5 Z"/></g>
<g><path style="opacity:1" fill="#ffe0c4" d="M 79.5,382.5 C 81.9732,382.947 82.1399,383.947 80,385.5C 78.2716,384.648 78.105,383.648 79.5,382.5 Z"/></g>
<g><path style="opacity:1" fill="#fedbd0" d="M 106.5,381.5 C 108.337,381.639 108.67,382.306 107.5,383.5C 106.702,383.043 106.369,382.376 106.5,381.5 Z"/></g>
<g><path style="opacity:1" fill="#fbdcbb" d="M 92.5,381.5 C 95.5476,381.494 96.0476,382.494 94,384.5C 92.9614,383.756 92.4614,382.756 92.5,381.5 Z"/></g>
<g><path style="opacity:1" fill="#ffe6cb" d="M 121.5,375.5 C 123.465,375.948 123.798,376.948 122.5,378.5C 121.614,377.675 121.281,376.675 121.5,375.5 Z"/></g>
<g><path style="opacity:1" fill="#ffdac4" d="M 101.5,374.5 C 103.337,374.639 103.67,375.306 102.5,376.5C 101.702,376.043 101.369,375.376 101.5,374.5 Z"/></g>
<g><path style="opacity:1" fill="#fccc76" d="M 112.5,370.5 C 114.337,370.639 114.67,371.306 113.5,372.5C 112.702,372.043 112.369,371.376 112.5,370.5 Z"/></g>
<g><path style="opacity:1" fill="#389f2c" d="M 105.5,362.5 C 101.18,366.921 97.8471,366.254 95.5,360.5C 97.3623,357.67 100.029,356.837 103.5,358C 105.107,359.049 105.773,360.549 105.5,362.5 Z"/></g>
<g><path style="opacity:1" fill="#c2933d" d="M 41.5,318.5 C 73.5,318.5 105.5,318.5 137.5,318.5C 137.5,319.5 137.5,320.5 137.5,321.5C 137.565,321.938 137.399,322.272 137,322.5C 105.724,320.512 74.2236,319.845 42.5,320.5C 42.5,328.833 42.5,337.167 42.5,345.5C 179.833,345.5 317.167,345.5 454.5,345.5C 454.5,336.833 454.5,328.167 454.5,319.5C 422.5,319.5 390.5,319.5 358.5,319.5C 390.662,318.502 422.996,318.168 455.5,318.5C 455.5,327.833 455.5,337.167 455.5,346.5C 317.5,346.5 179.5,346.5 41.5,346.5C 41.5,337.167 41.5,327.833 41.5,318.5 Z"/></g>
<g><path style="opacity:1" fill="#b78832" d="M 358.5,319.5 C 390.5,319.5 422.5,319.5 454.5,319.5C 454.5,328.167 454.5,336.833 454.5,345.5C 317.167,345.5 179.833,345.5 42.5,345.5C 42.5,337.167 42.5,328.833 42.5,320.5C 74.2236,319.845 105.724,320.512 137,322.5C 137.399,322.272 137.565,321.938 137.5,321.5C 145.987,338.716 158.654,342.549 175.5,333C 179.856,329.122 182.189,324.289 182.5,318.5C 226.172,318.167 269.838,318.5 313.5,319.5C 316.277,330.779 323.443,336.779 335,337.5C 347.596,337.628 355.429,331.628 358.5,319.5 Z"/></g>
</svg>
